<?xml version="1.0" encoding="UTF-8" standalone="no"?>
<!-- Created with sK1/UniConvertor (http://sk1project.org/) -->

<svg
   xmlns:dc="http://purl.org/dc/elements/1.1/"
   xmlns:cc="http://creativecommons.org/ns#"
   xmlns:rdf="http://www.w3.org/1999/02/22-rdf-syntax-ns#"
   xmlns:svg="http://www.w3.org/2000/svg"
   xmlns="http://www.w3.org/2000/svg"
   xmlns:sodipodi="http://sodipodi.sourceforge.net/DTD/sodipodi-0.dtd"
   xmlns:inkscape="http://www.inkscape.org/namespaces/inkscape"
   width="329.57135"
   height="400.15509"
   viewBox="0 0 263.65709 320.12406"
   id="svg2"
   version="1.1"
   inkscape:version="0.48.2 r9819"
   sodipodi:docname="man_red.svg"
   style="fill-rule:evenodd">
  <metadata
     id="metadata378">
    <rdf:RDF>
      <cc:Work
         rdf:about="">
        <dc:format>image/svg+xml</dc:format>
        <dc:type
           rdf:resource="http://purl.org/dc/dcmitype/StillImage" />
        <dc:title></dc:title>
      </cc:Work>
    </rdf:RDF>
  </metadata>
  <defs
     id="defs376" />
  <sodipodi:namedview
     pagecolor="#ffffff"
     bordercolor="#666666"
     borderopacity="1"
     objecttolerance="10"
     gridtolerance="10"
     guidetolerance="10"
     inkscape:pageopacity="0"
     inkscape:pageshadow="2"
     inkscape:window-width="1200"
     inkscape:window-height="837"
     id="namedview374"
     showgrid="false"
     inkscape:zoom="0.49277751"
     inkscape:cx="734.93032"
     inkscape:cy="-98.431854"
     inkscape:window-x="133"
     inkscape:window-y="14"
     inkscape:window-maximized="0"
     inkscape:current-layer="g4"
     fit-margin-top="50"
     fit-margin-right="50"
     fit-margin-bottom="50"
     fit-margin-left="50" />
  <g
     id="g4"
     transform="translate(-156.95209,-247.58163)">
    <g
       id="g4464"
       transform="matrix(0.80000003,0,0,0.80000003,117.07411,287.26066)">
      <g
         style="fill:#fa8072;fill-opacity:1;stroke:#000000;stroke-width:0.04615793;stroke-miterlimit:4;stroke-opacity:1;stroke-dasharray:none"
         id="g4057"
         transform="matrix(30.030063,0,0,25.60773,-428.68477,-498.37008)" />
      <g
         id="g4395">
        <g
           id="g3906"
           transform="matrix(24.634896,0,0,25.60773,-139.11779,-498.37008)"
           style="stroke:#000000;stroke-width:0.05096231;stroke-miterlimit:4;stroke-opacity:1;stroke-dasharray:none">
          <path
             sodipodi:nodetypes="cczszc"
             inkscape:connector-curvature="0"
             id="rect3023"
             d="m 17.897296,29.937486 -7.075394,0 c 0,0 0.01107,-6.488837 -1.1e-5,-7.547846 -0.01107,-1.05901 1.870073,-0.919909 3.636821,-0.91248 1.76675,0.0074 3.433474,-0.168613 3.438584,0.91248 0.0052,1.081093 0,7.547846 0,7.547846 z"
             style="fill:#fa8072;fill-opacity:1;fill-rule:nonzero;stroke:#000000;stroke-width:0.05096231;stroke-miterlimit:4;stroke-opacity:1;stroke-dasharray:none" />
        </g>
        <path
           style="fill:#fa8072;fill-opacity:1;fill-rule:nonzero;stroke:#000000;stroke-width:1.28038657;stroke-miterlimit:4;stroke-opacity:1;stroke-dasharray:none"
           d="m 50.66275,268.25117 0,59.3125 c 0,8.60706 7.225125,17.49953 16.283768,17.5 108.930032,0 195.801482,0 295.386072,0 9.05865,-4.7e-4 16.28377,-8.89294 16.28377,-17.5 l 0,-59.3125 c -112.10091,0 -230.67135,0 -327.95361,0 z"
           id="rect3812"
           inkscape:connector-curvature="0"
           sodipodi:nodetypes="csccscc" />
        <path
           style="fill:#fa8072;fill-opacity:1;fill-rule:nonzero;stroke:#000000;stroke-width:1.27999997;stroke-miterlimit:4;stroke-opacity:1;stroke-dasharray:none"
           d="m 378.60735,268.26085 0,-177.294638 c 0,-10.678908 -7.98584,-19.490988 -17.64372,-19.490988 l -41.67336,0 c -9.65787,0 -17.51299,8.79886 -17.51227,19.477749 l 0.0135,177.307877 z"
           id="rect3833"
           inkscape:connector-curvature="0"
           sodipodi:nodetypes="csssscc" />
        <path
           sodipodi:nodetypes="csssscc"
           inkscape:connector-curvature="0"
           id="path4168"
           d="m 127.47825,268.26142 0,-177.295208 c 0,-10.678908 -7.985,-19.490988 -17.64288,-19.490988 l -41.673357,0 c -9.65788,0 -17.513,8.79886 -17.51228,19.477749 l 0.0123,177.308447 z"
           style="fill:#fa8072;fill-opacity:1;fill-rule:nonzero;stroke:#000000;stroke-width:1.27999997;stroke-miterlimit:4;stroke-opacity:1;stroke-dasharray:none" />
      </g>
    </g>
  </g>
</svg>
