<?xml version="1.0" encoding="UTF-8" standalone="no"?>
<!-- Created with sK1/UniConvertor (http://sk1project.org/) -->

<svg
   xmlns:dc="http://purl.org/dc/elements/1.1/"
   xmlns:cc="http://creativecommons.org/ns#"
   xmlns:rdf="http://www.w3.org/1999/02/22-rdf-syntax-ns#"
   xmlns:svg="http://www.w3.org/2000/svg"
   xmlns="http://www.w3.org/2000/svg"
   xmlns:sodipodi="http://sodipodi.sourceforge.net/DTD/sodipodi-0.dtd"
   xmlns:inkscape="http://www.inkscape.org/namespaces/inkscape"
   width="329.57135"
   height="400.15509"
   viewBox="0 0 263.65709 320.12406"
   id="svg2"
   version="1.1"
   inkscape:version="0.48.2 r9819"
   sodipodi:docname="man_red.svg"
   style="fill-rule:evenodd">
  <metadata
     id="metadata378">
    <rdf:RDF>
      <cc:Work
         rdf:about="">
        <dc:format>image/svg+xml</dc:format>
        <dc:type
           rdf:resource="http://purl.org/dc/dcmitype/StillImage" />
        <dc:title />
      </cc:Work>
    </rdf:RDF>
  </metadata>
  <defs
     id="defs376" />
  <sodipodi:namedview
     pagecolor="#ffffff"
     bordercolor="#666666"
     borderopacity="1"
     objecttolerance="10"
     gridtolerance="10"
     guidetolerance="10"
     inkscape:pageopacity="0"
     inkscape:pageshadow="2"
     inkscape:window-width="1200"
     inkscape:window-height="837"
     id="namedview374"
     showgrid="false"
     inkscape:zoom="0.49277751"
     inkscape:cx="85.262261"
     inkscape:cy="175.14507"
     inkscape:window-x="607"
     inkscape:window-y="0"
     inkscape:window-maximized="0"
     inkscape:current-layer="g4"
     fit-margin-top="50"
     fit-margin-right="50"
     fit-margin-bottom="50"
     fit-margin-left="50" />
  <g
     id="g4"
     transform="translate(-156.95209,-247.58163)">
    <g
       id="g4191"
       transform="matrix(9.7397524,0,0,9.7397524,-534.93428,-3716.3603)">
      <path
         sodipodi:nodetypes="cccccccccccccccccccc"
         inkscape:connector-curvature="0"
         id="path132"
         d="m 85.728,433.68763 c 2.563,-0.045 4.410054,0.344 6.522854,-1.438 1.6074,-1.27 1.6694,-3.496 1.6919,-5.373 -0.0283,-4.115 0.0224,-0.33402 -0.0171,-4.45302 -0.002,-3.30822 -3.706744,-3.32183 -3.6865,0 -0.0225,4.002 -0.0059,2.63311 -0.0059,4.09202 0,1.16895 -0.222954,1.10126 -0.222954,-0.021 -0.0562,-11.459 -0.0445,-1.44855 -0.0445,-12.95302 0.292,-2.748 -4.5244,-3.372 -4.7549,-0.54 -0.02925,3.15416 -0.0053,-0.4428 -0.039,6.4412 0.0057,1.00446 -1.058541,1.00446 -1.124,0 0.0058,-3.28161 -0.0166,3.39525 0.0112,-5.69787 -0.02212,-3.41628 -5.009999,-3.45638 -5.0357,-0.22583 -0.09655,11.55946 0.0225,1.46552 -0.0561,12.92452 0,0.96667 -0.198644,0.96455 -0.198644,-10e-6 -0.02442,-1.36641 0.0271,-0.8922 -0.0066,-4.69122 -0.0011,-2.78819 -3.505149,-3.02265 -3.537106,-0.0673 -0.0455,4.816 -0.0288,1.99952 -0.0064,6.81652 -0.0557,1.832 0.8491,3.781 2.6309,4.478 2.165049,0.68442 7.591595,0.69831 7.87855,0.70801 z"
         style="fill:#ff0000;fill-opacity:1;stroke:#000000;stroke-width:0.08213761;stroke-miterlimit:4;stroke-opacity:1;stroke-dasharray:none" />
      <path
         transform="matrix(0.80000003,0,0,0.80000003,7.4130467,-1.953213)"
         d="m 101.78275,541.60974 c 0,3.01204 -2.441739,5.45378 -5.453778,5.45378 -3.012039,0 -5.45378,-2.44174 -5.45378,-5.45378 0,-3.01204 2.441741,-5.45378 5.45378,-5.45378 3.012039,0 5.453778,2.44174 5.453778,5.45378 z"
         sodipodi:ry="5.4537797"
         sodipodi:rx="5.4537797"
         sodipodi:cy="541.60974"
         sodipodi:cx="96.328972"
         id="path4154"
         style="fill:#ff0000;fill-opacity:1;fill-rule:nonzero;stroke:#000000;stroke-width:0.10267201;stroke-miterlimit:4;stroke-opacity:1;stroke-dasharray:none"
         sodipodi:type="arc" />
    </g>
  </g>
</svg>
