<?xml version="1.0" encoding="UTF-8" standalone="no"?>
<!-- Created with Inkscape (http://www.inkscape.org/) -->

<svg
   xmlns:dc="http://purl.org/dc/elements/1.1/"
   xmlns:cc="http://creativecommons.org/ns#"
   xmlns:rdf="http://www.w3.org/1999/02/22-rdf-syntax-ns#"
   xmlns:svg="http://www.w3.org/2000/svg"
   xmlns="http://www.w3.org/2000/svg"
   xmlns:sodipodi="http://sodipodi.sourceforge.net/DTD/sodipodi-0.dtd"
   xmlns:inkscape="http://www.inkscape.org/namespaces/inkscape"
   width="350.6875"
   height="75.125"
   id="svg2"
   version="1.1"
   inkscape:version="0.48.2 r9819"
   sodipodi:docname="sitzplan.svg"
   inkscape:export-filename="/Users/Felix/NetBeansProjects/home_cinema/app/assets/images/seat/leinwand.png"
   inkscape:export-xdpi="90"
   inkscape:export-ydpi="90">
  <sodipodi:namedview
     id="base"
     pagecolor="#ffffff"
     bordercolor="#666666"
     borderopacity="1.0"
     inkscape:pageopacity="0.0"
     inkscape:pageshadow="2"
     inkscape:zoom="0.49497475"
     inkscape:cx="193.9574"
     inkscape:cy="-180.54679"
     inkscape:document-units="px"
     inkscape:current-layer="layer1"
     showgrid="false"
     inkscape:window-width="1440"
     inkscape:window-height="852"
     inkscape:window-x="0"
     inkscape:window-y="0"
     inkscape:window-maximized="1"
     fit-margin-top="0"
     fit-margin-left="0"
     fit-margin-right="0"
     fit-margin-bottom="0" />
  <defs
     id="defs4">
    <linearGradient
       id="linearGradient3991">
      <stop
         style="stop-color:#ffffff;stop-opacity:0.46666667;"
         offset="0"
         id="stop3993" />
      <stop
         style="stop-color:#000000;stop-opacity:0;"
         offset="1"
         id="stop3995" />
    </linearGradient>
  </defs>
  <metadata
     id="metadata7">
    <rdf:RDF>
      <cc:Work
         rdf:about="">
        <dc:format>image/svg+xml</dc:format>
        <dc:type
           rdf:resource="http://purl.org/dc/dcmitype/StillImage" />
        <dc:title></dc:title>
      </cc:Work>
    </rdf:RDF>
  </metadata>
  <g
     id="layer1"
     inkscape:groupmode="layer"
     inkscape:label="Ebene 1"
     transform="translate(-99.65625,-52.3125)">
    <g
       id="g2995">
      <path
         style="fill:#fafafa;fill-opacity:1;fill-rule:nonzero;stroke:#000000;stroke-width:1;stroke-linecap:butt;stroke-linejoin:miter;stroke-miterlimit:4;stroke-opacity:1;stroke-dasharray:none"
         d="m 100.43794,52.80012 349.12413,0 -34.98563,74.12406 -279.15286,0 z"
         id="rect2989"
         inkscape:connector-curvature="0"
         sodipodi:nodetypes="ccccc" />
      <g
         transform="translate(50.507627,-139.40105)"
         style="font-size:40px;font-style:normal;font-weight:normal;line-height:125%;letter-spacing:0px;word-spacing:0px;fill:#000000;fill-opacity:1;stroke:none;font-family:Sans"
         id="text2992">
        <path
           inkscape:connector-curvature="0"
           d="m 100.67386,204.60839 c 0,0 5.35649,0 5.35649,0 0,0 12.09876,42.145 12.09876,42.145 0,0 17.31754,0 17.31754,0 0,0 1.15515,4.80197 1.15515,4.80197 0,0 -21.84385,0 -21.84385,0 0,0 -14.08409,-46.94697 -14.08409,-46.94697"
           id="path3105" />
        <path
           inkscape:connector-curvature="0"
           d="m 160.06863,233.84415 c 0,0 0.46148,2.73756 0.46148,2.73756 0,0 -20.7028,0 -20.7028,0 1.03734,3.7876 2.58226,6.62804 4.63413,8.56225 2.04269,1.89537 4.50456,2.83586 7.40111,2.83586 1.67776,0 3.25373,-0.24653 4.73086,-0.7406 1.4969,-0.49537 2.93825,-1.24091 4.32661,-2.23963 0,0 0.84969,4.95956 0.84969,4.95956 -1.4207,0.78584 -2.90797,1.38231 -4.46378,1.79128 -1.55238,0.40806 -3.16408,0.61175 -4.83765,0.61175 -4.19183,0 -7.83195,-1.44923 -10.95727,-4.38236 -3.1596,-2.98023 -5.36942,-7.08819 -6.61702,-12.39735 -1.32718,-5.6478 -1.16464,-10.2446 0.53939,-13.70986 1.74652,-3.54884 4.79494,-5.34716 9.12174,-5.3472 3.88036,4e-5 7.24126,1.62146 10.04861,4.82541 2.77597,3.13178 4.59262,7.31893 5.4649,12.49333 m -4.83459,-1.66143 c -0.59887,-3.13578 -1.76858,-5.6749 -3.51467,-7.59304 -1.74636,-1.93692 -3.77858,-2.91255 -6.08378,-2.91258 -2.61032,3e-5 -4.5041,0.94322 -5.673,2.81618 -1.14117,1.85541 -1.45623,4.43849 -0.95957,7.72034 0,0 16.23102,-0.0309 16.23102,-0.0309"
           id="path3107" />
        <path
           inkscape:connector-curvature="0"
           d="m 165.06161,217.42658 c 0,0 4.72826,0 4.72826,0 0,0 4.69184,34.12878 4.69184,34.12878 0,0 -4.32645,0 -4.32645,0 0,0 -5.09365,-34.12878 -5.09365,-34.12878 m -2.24834,-15.0644 c 0,0 4.90562,0 4.90562,0 0,0 1.12569,8.18831 1.12569,8.18831 0,0 -4.80922,0 -4.80922,0 0,0 -1.22209,-8.18831 -1.22209,-8.18831"
           id="path3109" />
        <path
           inkscape:connector-curvature="0"
           d="m 204.34208,231.68769 c 0,0 1.0596,19.86767 1.0596,19.86767 0,0 -4.32645,0 -4.32645,0 0,0 -1.28141,-19.68188 -1.28141,-19.68188 -0.21544,-3.30864 -0.89874,-5.82217 -2.05456,-7.5088 -1.16581,-1.70111 -2.80305,-2.55719 -4.90415,-2.55722 -2.52474,3e-5 -4.42069,1.02905 -5.67807,3.07113 -1.24449,2.0212 -1.68745,4.74322 -1.34296,8.13664 0,0 1.88209,18.54013 1.88209,18.54013 0,0 -4.34995,0 -4.34995,0 0,0 -3.86856,-34.12878 -3.86856,-34.12878 0,0 4.75395,0 4.75395,0 0,0 0.57987,5.71217 0.57987,5.71217 0.89833,-2.19104 2.0566,-3.84483 3.4732,-4.94767 1.44157,-1.10888 3.16978,-1.66563 5.17866,-1.66567 3.31376,4e-5 5.90576,1.33367 7.75754,3.97458 1.82631,2.58484 2.86244,6.33629 3.1212,11.1877"
           id="path3111" />
        <path
           inkscape:connector-curvature="0"
           d="m 210.31413,217.42658 c 0,0 4.72826,0 4.72826,0 0,0 6.18384,27.13921 6.18384,27.13921 0,0 5.61111,-27.13921 5.61111,-27.13921 0,0 5.57626,0 5.57626,0 0,0 5.00993,27.13921 5.00993,27.13921 0,0 6.78503,-27.13921 6.78503,-27.13921 0,0 4.72826,0 4.72826,0 0,0 -8.92358,34.12878 -8.92358,34.12878 0,0 -5.10239,0 -5.10239,0 0,0 -5.34894,-27.51256 -5.34894,-27.51256 0,0 -6.00797,27.51256 -6.00797,27.51256 0,0 -5.10239,0 -5.10239,0 0,0 -8.13742,-34.12878 -8.13742,-34.12878"
           id="path3113" />
        <path
           inkscape:connector-curvature="0"
           d="m 267.25988,235.15697 c -3.65164,2e-5 -6.23013,0.51657 -7.7294,1.54551 -1.49128,1.02346 -2.33771,2.75674 -2.54326,5.18052 -0.16193,1.90911 0.22052,3.41484 1.14199,4.52668 0.93359,1.08624 2.27666,1.62699 4.03331,1.62699 2.4213,0 4.47477,-1.02591 6.17446,-3.09487 1.73703,-2.11156 2.82871,-4.94786 3.2664,-8.54138 0,0 0.15145,-1.24345 0.15145,-1.24345 0,0 -4.49495,0 -4.49495,0 m 9.32521,-2.32643 c 0,0 -2.5011,18.72482 -2.5011,18.72482 0,0 -4.32645,0 -4.32645,0 0,0 0.58487,-4.80197 0.58487,-4.80197 -1.23105,1.93577 -2.63555,3.3557 -4.21716,4.27144 -1.57183,0.89265 -3.41846,1.33735 -5.54563,1.33735 -2.69028,0 -4.75844,-0.89049 -6.21507,-2.6845 -1.45368,-1.83057 -2.07269,-4.30294 -1.84337,-7.44257 0.27245,-3.73023 1.51179,-6.59192 3.73077,-8.54419 2.25821,-1.97223 5.47479,-2.96594 9.63239,-2.96596 0,0 6.4103,0 6.4103,0 0,0 0.0684,-0.56121 0.0684,-0.56121 0.32417,-2.66164 -0.12782,-4.74056 -1.36621,-6.21761 -1.22843,-1.50977 -3.12587,-2.26901 -5.68532,-2.26904 -1.6272,3e-5 -3.23536,0.24981 -4.82145,0.74841 -1.58214,0.49741 -3.1215,1.24114 -4.61547,2.22841 0,0 0.4334,-5.53608 0.4334,-5.53608 1.79404,-0.86039 3.52517,-1.5026 5.19022,-1.92451 1.67064,-0.445 3.27999,-0.66788 4.82529,-0.66792 4.17225,4e-5 7.11947,1.40012 8.82383,4.17125 1.68093,2.73316 2.1495,6.80545 1.4378,12.13388"
           id="path3115" />
        <path
           inkscape:connector-curvature="0"
           d="m 309.23028,231.68769 c 0,0 -4.32037,19.86767 -4.32037,19.86767 0,0 -4.32645,0 -4.32645,0 0,0 4.04825,-19.68188 4.04825,-19.68188 0.68051,-3.30864 0.67785,-5.82217 -0.0213,-7.5088 -0.70516,-1.70111 -2.11058,-2.55719 -4.21168,-2.55722 -2.52474,3e-5 -4.69935,1.02905 -6.5097,3.07113 -1.79182,2.0212 -2.97187,4.74322 -3.54628,8.13664 0,0 -3.13839,18.54013 -3.13839,18.54013 0,0 -4.34996,0 -4.34996,0 0,0 5.37318,-34.12878 5.37318,-34.12878 0,0 4.75395,0 4.75395,0 0,0 -0.96693,5.71217 -0.96693,5.71217 1.49164,-2.19104 3.09775,-3.84483 4.81298,-4.94767 1.74184,-1.10888 3.62082,-1.66563 5.62971,-1.66567 3.31375,4e-5 5.54461,1.33367 6.68126,3.97458 1.12636,2.58484 1.14663,6.33629 0.0917,11.1877"
           id="path3117" />
        <path
           inkscape:connector-curvature="0"
           d="m 339.14334,223.00926 c 0,0 5.95104,-20.64708 5.95104,-20.64708 0,0 4.90562,0 4.90562,0 0,0 -14.75795,49.19318 -14.75795,49.19318 0,0 -4.32645,0 -4.32645,0 0,0 1.36756,-4.74475 1.36756,-4.74475 -1.46312,1.89743 -3.02016,3.29848 -4.67608,4.21422 -1.627,0.89265 -3.40727,1.33735 -5.34676,1.33735 -3.17515,0 -5.38815,-1.50521 -6.65453,-4.553 -1.27157,-3.09867 -1.30542,-7.25245 -0.0601,-12.53054 1.28059,-5.42735 3.40684,-9.91944 6.39055,-13.40603 3.0541,-3.54884 6.34445,-5.34716 9.82993,-5.3472 2.12905,4e-5 3.79895,0.54567 5.00484,1.63249 1.2226,1.05902 2.01274,2.68071 2.37229,4.85136 m -18.9322,12.26938 c -1.01017,4.07147 -1.12236,7.21037 -0.35949,9.46079 0.77456,2.20464 2.31371,3.29724 4.62427,3.29724 2.31052,0 4.43559,-1.0926 6.39247,-3.29724 1.98574,-2.25042 3.56508,-5.38932 4.73859,-9.46079 1.19893,-4.15971 1.45537,-7.48133 0.74315,-9.91947 -0.71519,-2.49026 -2.31372,-3.74725 -4.78881,-3.74728 -2.47513,3e-5 -4.74777,1.25702 -6.79836,3.74728 -2.00306,2.43814 -3.51978,5.75976 -4.55182,9.91947"
           id="path3119" />
      </g>
    </g>
  </g>
</svg>
